<svg id="visual" viewBox="0 0 900 600" width="900" height="600" xmlns="http://www.w3.org/2000/svg" xmlns:xlink="http://www.w3.org/1999/xlink" version="1.1"><path d="M597 600L600.5 583.3C604 566.7 611 533.3 607.2 500C603.3 466.7 588.7 433.3 588.7 400C588.7 366.7 603.3 333.3 601.5 300C599.7 266.7 581.3 233.3 580.2 200C579 166.7 595 133.3 594 100C593 66.7 575 33.3 566 16.7L557 0L900 0L900 16.7C900 33.3 900 66.7 900 100C900 133.3 900 166.7 900 200C900 233.3 900 266.7 900 300C900 333.3 900 366.7 900 400C900 433.3 900 466.7 900 500C900 533.3 900 566.7 900 583.3L900 600Z" fill="#00f7ff"></path><path d="M622 600L627.8 583.3C633.7 566.7 645.3 533.3 651.2 500C657 466.7 657 433.3 651.8 400C646.7 366.7 636.3 333.3 638.8 300C641.3 266.7 656.7 233.3 657.7 200C658.7 166.7 645.3 133.3 635.3 100C625.3 66.7 618.7 33.3 615.3 16.7L612 0L900 0L900 16.7C900 33.3 900 66.7 900 100C900 133.3 900 166.7 900 200C900 233.3 900 266.7 900 300C900 333.3 900 366.7 900 400C900 433.3 900 466.7 900 500C900 533.3 900 566.7 900 583.3L900 600Z" fill="#00deff"></path><path d="M698 600L698.8 583.3C699.7 566.7 701.3 533.3 704.3 500C707.3 466.7 711.7 433.3 708 400C704.3 366.7 692.7 333.3 689.2 300C685.7 266.7 690.3 233.3 689.7 200C689 166.7 683 133.3 680 100C677 66.7 677 33.3 677 16.7L677 0L900 0L900 16.7C900 33.3 900 66.7 900 100C900 133.3 900 166.7 900 200C900 233.3 900 266.7 900 300C900 333.3 900 366.7 900 400C900 433.3 900 466.7 900 500C900 533.3 900 566.7 900 583.3L900 600Z" fill="#00c4ff"></path><path d="M776 600L771.7 583.3C767.3 566.7 758.7 533.3 753.2 500C747.7 466.7 745.3 433.3 744.5 400C743.7 366.7 744.3 333.3 749.3 300C754.3 266.7 763.7 233.3 767.7 200C771.7 166.7 770.3 133.3 769.7 100C769 66.7 769 33.3 769 16.7L769 0L900 0L900 16.7C900 33.3 900 66.7 900 100C900 133.3 900 166.7 900 200C900 233.3 900 266.7 900 300C900 333.3 900 366.7 900 400C900 433.3 900 466.7 900 500C900 533.3 900 566.7 900 583.3L900 600Z" fill="#00a7ff"></path><path d="M814 600L814.5 583.3C815 566.7 816 533.3 818.8 500C821.7 466.7 826.3 433.3 829 400C831.7 366.7 832.3 333.3 829 300C825.7 266.7 818.3 233.3 820.3 200C822.3 166.7 833.7 133.3 833.5 100C833.3 66.7 821.7 33.3 815.8 16.7L810 0L900 0L900 16.7C900 33.3 900 66.7 900 100C900 133.3 900 166.7 900 200C900 233.3 900 266.7 900 300C900 333.3 900 366.7 900 400C900 433.3 900 466.7 900 500C900 533.3 900 566.7 900 583.3L900 600Z" fill="#0485ff"></path></svg>