<svg id="visual" viewBox="0 0 900 600" width="900" height="600" xmlns="http://www.w3.org/2000/svg" xmlns:xlink="http://www.w3.org/1999/xlink" version="1.1"><path d="M0 475L37.5 482.5C75 490 150 505 225 505.5C300 506 375 492 450 492.8C525 493.7 600 509.3 675 519.3C750 529.3 825 533.7 862.5 535.8L900 538L900 601L862.5 601C825 601 750 601 675 601C600 601 525 601 450 601C375 601 300 601 225 601C150 601 75 601 37.5 601L0 601Z" fill="#5ab7ce" stroke-linecap="round" stroke-linejoin="miter"></path></svg>