<svg id="visual" viewBox="0 0 900 600" width="900" height="600" xmlns="http://www.w3.org/2000/svg" xmlns:xlink="http://www.w3.org/1999/xlink" version="1.1"><path d="M0 458L21.5 464.2C43 470.3 86 482.7 128.8 485.3C171.7 488 214.3 481 257.2 478.3C300 475.7 343 477.3 385.8 480.5C428.7 483.7 471.3 488.3 514.2 490.8C557 493.3 600 493.7 642.8 488.7C685.7 483.7 728.3 473.3 771.2 469.8C814 466.3 857 469.7 878.5 471.3L900 473L900 601L878.5 601C857 601 814 601 771.2 601C728.3 601 685.7 601 642.8 601C600 601 557 601 514.2 601C471.3 601 428.7 601 385.8 601C343 601 300 601 257.2 601C214.3 601 171.7 601 128.8 601C86 601 43 601 21.5 601L0 601Z" fill="#92cedb"></path><path d="M0 487L21.5 490.2C43 493.3 86 499.7 128.8 499.7C171.7 499.7 214.3 493.3 257.2 491.5C300 489.7 343 492.3 385.8 491.8C428.7 491.3 471.3 487.7 514.2 489.5C557 491.3 600 498.7 642.8 498.2C685.7 497.7 728.3 489.3 771.2 485.2C814 481 857 481 878.5 481L900 481L900 601L878.5 601C857 601 814 601 771.2 601C728.3 601 685.7 601 642.8 601C600 601 557 601 514.2 601C471.3 601 428.7 601 385.8 601C343 601 300 601 257.2 601C214.3 601 171.7 601 128.8 601C86 601 43 601 21.5 601L0 601Z" fill="#78c3d4"></path><path d="M0 505L21.5 505.2C43 505.3 86 505.7 128.8 508.5C171.7 511.3 214.3 516.7 257.2 521C300 525.3 343 528.7 385.8 529.3C428.7 530 471.3 528 514.2 528C557 528 600 530 642.8 529.2C685.7 528.3 728.3 524.7 771.2 520.5C814 516.3 857 511.7 878.5 509.3L900 507L900 601L878.5 601C857 601 814 601 771.2 601C728.3 601 685.7 601 642.8 601C600 601 557 601 514.2 601C471.3 601 428.7 601 385.8 601C343 601 300 601 257.2 601C214.3 601 171.7 601 128.8 601C86 601 43 601 21.5 601L0 601Z" fill="#5ab7ce"></path><path d="M0 547L21.5 548.2C43 549.3 86 551.7 128.8 551.7C171.7 551.7 214.3 549.3 257.2 546.8C300 544.3 343 541.7 385.8 540.5C428.7 539.3 471.3 539.7 514.2 543C557 546.3 600 552.7 642.8 554.7C685.7 556.7 728.3 554.3 771.2 550.5C814 546.7 857 541.3 878.5 538.7L900 536L900 601L878.5 601C857 601 814 601 771.2 601C728.3 601 685.7 601 642.8 601C600 601 557 601 514.2 601C471.3 601 428.7 601 385.8 601C343 601 300 601 257.2 601C214.3 601 171.7 601 128.8 601C86 601 43 601 21.5 601L0 601Z" fill="#4d9fb3"></path><path d="M0 558L21.5 561.2C43 564.3 86 570.7 128.8 572.5C171.7 574.3 214.3 571.7 257.2 570.3C300 569 343 569 385.8 570.8C428.7 572.7 471.3 576.3 514.2 574.5C557 572.7 600 565.3 642.8 564.3C685.7 563.3 728.3 568.7 771.2 571.8C814 575 857 576 878.5 576.5L900 577L900 601L878.5 601C857 601 814 601 771.2 601C728.3 601 685.7 601 642.8 601C600 601 557 601 514.2 601C471.3 601 428.7 601 385.8 601C343 601 300 601 257.2 601C214.3 601 171.7 601 128.8 601C86 601 43 601 21.5 601L0 601Z" fill="#408799"></path></svg>